<mxfile host="app.diagrams.net" modified="2021-06-09T04:54:53.528Z" agent="5.0 (Macintosh; Intel Mac OS X 10_15_7) AppleWebKit/537.36 (KHTML, like Gecko) Chrome/91.0.4472.77 Safari/537.36" etag="x92XVws6wN52FsiP8iIx" version="14.7.6" type="github">
  <diagram id="C5RBs43oDa-KdzZeNtuy" name="Page-1">
    <mxGraphModel dx="946" dy="520" grid="1" gridSize="10" guides="1" tooltips="1" connect="1" arrows="1" fold="1" page="1" pageScale="1" pageWidth="827" pageHeight="1169" math="0" shadow="0">
      <root>
        <mxCell id="WIyWlLk6GJQsqaUBKTNV-0" />
        <mxCell id="WIyWlLk6GJQsqaUBKTNV-1" parent="WIyWlLk6GJQsqaUBKTNV-0" />
        <mxCell id="FqfvfAQ5nrjEmceLnOEr-4" value="Strategy 抽象策略" style="swimlane;fontStyle=1;align=center;verticalAlign=top;childLayout=stackLayout;horizontal=1;startSize=26;horizontalStack=0;resizeParent=1;resizeParentMax=0;resizeLast=0;collapsible=1;marginBottom=0;strokeColor=#99FF33;strokeWidth=2;sketch=1;" vertex="1" parent="WIyWlLk6GJQsqaUBKTNV-1">
          <mxGeometry x="280" y="140" width="160" height="86" as="geometry" />
        </mxCell>
        <mxCell id="FqfvfAQ5nrjEmceLnOEr-5" value="+ " style="text;strokeColor=none;fillColor=none;align=left;verticalAlign=top;spacingLeft=4;spacingRight=4;overflow=hidden;rotatable=0;points=[[0,0.5],[1,0.5]];portConstraint=eastwest;sketch=1;" vertex="1" parent="FqfvfAQ5nrjEmceLnOEr-4">
          <mxGeometry y="26" width="160" height="26" as="geometry" />
        </mxCell>
        <mxCell id="FqfvfAQ5nrjEmceLnOEr-6" value="" style="line;strokeWidth=1;fillColor=none;align=left;verticalAlign=middle;spacingTop=-1;spacingLeft=3;spacingRight=3;rotatable=0;labelPosition=right;points=[];portConstraint=eastwest;sketch=1;" vertex="1" parent="FqfvfAQ5nrjEmceLnOEr-4">
          <mxGeometry y="52" width="160" height="8" as="geometry" />
        </mxCell>
        <mxCell id="FqfvfAQ5nrjEmceLnOEr-7" value="+ algorithm()" style="text;strokeColor=none;fillColor=none;align=left;verticalAlign=top;spacingLeft=4;spacingRight=4;overflow=hidden;rotatable=0;points=[[0,0.5],[1,0.5]];portConstraint=eastwest;sketch=1;" vertex="1" parent="FqfvfAQ5nrjEmceLnOEr-4">
          <mxGeometry y="60" width="160" height="26" as="geometry" />
        </mxCell>
        <mxCell id="FqfvfAQ5nrjEmceLnOEr-16" style="orthogonalLoop=1;jettySize=auto;html=1;exitX=0.5;exitY=0;exitDx=0;exitDy=0;entryX=0.431;entryY=1.038;entryDx=0;entryDy=0;entryPerimeter=0;endArrow=blockThin;endFill=0;strokeWidth=2;startSize=6;endSize=14;strokeColor=#9999FF;sketch=1;" edge="1" parent="WIyWlLk6GJQsqaUBKTNV-1" source="FqfvfAQ5nrjEmceLnOEr-8" target="FqfvfAQ5nrjEmceLnOEr-7">
          <mxGeometry relative="1" as="geometry" />
        </mxCell>
        <mxCell id="FqfvfAQ5nrjEmceLnOEr-18" value="extends" style="edgeLabel;html=1;align=center;verticalAlign=middle;resizable=0;points=[];sketch=1;" vertex="1" connectable="0" parent="FqfvfAQ5nrjEmceLnOEr-16">
          <mxGeometry x="-0.0672" y="-1" relative="1" as="geometry">
            <mxPoint as="offset" />
          </mxGeometry>
        </mxCell>
        <mxCell id="FqfvfAQ5nrjEmceLnOEr-8" value="ConcreteStrategy 策略1" style="swimlane;fontStyle=1;align=center;verticalAlign=top;childLayout=stackLayout;horizontal=1;startSize=26;horizontalStack=0;resizeParent=1;resizeParentMax=0;resizeLast=0;collapsible=1;marginBottom=0;strokeWidth=2;strokeColor=#9999FF;sketch=1;" vertex="1" parent="WIyWlLk6GJQsqaUBKTNV-1">
          <mxGeometry x="110" y="360" width="160" height="86" as="geometry" />
        </mxCell>
        <mxCell id="FqfvfAQ5nrjEmceLnOEr-9" value="+ " style="text;strokeColor=none;fillColor=none;align=left;verticalAlign=top;spacingLeft=4;spacingRight=4;overflow=hidden;rotatable=0;points=[[0,0.5],[1,0.5]];portConstraint=eastwest;sketch=1;" vertex="1" parent="FqfvfAQ5nrjEmceLnOEr-8">
          <mxGeometry y="26" width="160" height="26" as="geometry" />
        </mxCell>
        <mxCell id="FqfvfAQ5nrjEmceLnOEr-10" value="" style="line;strokeWidth=1;fillColor=none;align=left;verticalAlign=middle;spacingTop=-1;spacingLeft=3;spacingRight=3;rotatable=0;labelPosition=right;points=[];portConstraint=eastwest;sketch=1;" vertex="1" parent="FqfvfAQ5nrjEmceLnOEr-8">
          <mxGeometry y="52" width="160" height="8" as="geometry" />
        </mxCell>
        <mxCell id="FqfvfAQ5nrjEmceLnOEr-11" value="+ algorithm()" style="text;strokeColor=none;fillColor=none;align=left;verticalAlign=top;spacingLeft=4;spacingRight=4;overflow=hidden;rotatable=0;points=[[0,0.5],[1,0.5]];portConstraint=eastwest;sketch=1;" vertex="1" parent="FqfvfAQ5nrjEmceLnOEr-8">
          <mxGeometry y="60" width="160" height="26" as="geometry" />
        </mxCell>
        <mxCell id="FqfvfAQ5nrjEmceLnOEr-17" style="edgeStyle=none;orthogonalLoop=1;jettySize=auto;html=1;exitX=0.5;exitY=0;exitDx=0;exitDy=0;entryX=0.538;entryY=1.115;entryDx=0;entryDy=0;entryPerimeter=0;endArrow=block;endFill=0;endSize=14;strokeWidth=2;strokeColor=#9999FF;sketch=1;" edge="1" parent="WIyWlLk6GJQsqaUBKTNV-1" source="FqfvfAQ5nrjEmceLnOEr-12" target="FqfvfAQ5nrjEmceLnOEr-7">
          <mxGeometry relative="1" as="geometry" />
        </mxCell>
        <mxCell id="FqfvfAQ5nrjEmceLnOEr-12" value="ConcreteStrategy 策略2" style="swimlane;fontStyle=1;align=center;verticalAlign=top;childLayout=stackLayout;horizontal=1;startSize=26;horizontalStack=0;resizeParent=1;resizeParentMax=0;resizeLast=0;collapsible=1;marginBottom=0;strokeWidth=2;strokeColor=#9999FF;sketch=1;" vertex="1" parent="WIyWlLk6GJQsqaUBKTNV-1">
          <mxGeometry x="430" y="360" width="160" height="86" as="geometry" />
        </mxCell>
        <mxCell id="FqfvfAQ5nrjEmceLnOEr-13" value="+ " style="text;strokeColor=none;fillColor=none;align=left;verticalAlign=top;spacingLeft=4;spacingRight=4;overflow=hidden;rotatable=0;points=[[0,0.5],[1,0.5]];portConstraint=eastwest;sketch=1;" vertex="1" parent="FqfvfAQ5nrjEmceLnOEr-12">
          <mxGeometry y="26" width="160" height="26" as="geometry" />
        </mxCell>
        <mxCell id="FqfvfAQ5nrjEmceLnOEr-14" value="" style="line;strokeWidth=1;fillColor=none;align=left;verticalAlign=middle;spacingTop=-1;spacingLeft=3;spacingRight=3;rotatable=0;labelPosition=right;points=[];portConstraint=eastwest;sketch=1;" vertex="1" parent="FqfvfAQ5nrjEmceLnOEr-12">
          <mxGeometry y="52" width="160" height="8" as="geometry" />
        </mxCell>
        <mxCell id="FqfvfAQ5nrjEmceLnOEr-15" value="+ algorithm()" style="text;strokeColor=none;fillColor=none;align=left;verticalAlign=top;spacingLeft=4;spacingRight=4;overflow=hidden;rotatable=0;points=[[0,0.5],[1,0.5]];portConstraint=eastwest;sketch=1;" vertex="1" parent="FqfvfAQ5nrjEmceLnOEr-12">
          <mxGeometry y="60" width="160" height="26" as="geometry" />
        </mxCell>
        <mxCell id="FqfvfAQ5nrjEmceLnOEr-19" value="extends" style="text;html=1;align=center;verticalAlign=middle;resizable=0;points=[];autosize=1;strokeColor=none;sketch=1;" vertex="1" parent="WIyWlLk6GJQsqaUBKTNV-1">
          <mxGeometry x="430" y="290" width="60" height="20" as="geometry" />
        </mxCell>
        <mxCell id="FqfvfAQ5nrjEmceLnOEr-25" style="edgeStyle=none;orthogonalLoop=1;jettySize=auto;html=1;exitX=0;exitY=0.5;exitDx=0;exitDy=0;entryX=1;entryY=0.5;entryDx=0;entryDy=0;endArrow=open;endFill=0;startSize=6;endSize=14;strokeColor=#9999FF;strokeWidth=2;sketch=1;" edge="1" parent="WIyWlLk6GJQsqaUBKTNV-1" source="FqfvfAQ5nrjEmceLnOEr-20" target="FqfvfAQ5nrjEmceLnOEr-5">
          <mxGeometry relative="1" as="geometry" />
        </mxCell>
        <mxCell id="FqfvfAQ5nrjEmceLnOEr-20" value="Context" style="swimlane;fontStyle=1;align=center;verticalAlign=top;childLayout=stackLayout;horizontal=1;startSize=26;horizontalStack=0;resizeParent=1;resizeParentMax=0;resizeLast=0;collapsible=1;marginBottom=0;strokeWidth=2;strokeColor=#99FFFF;rounded=0;shadow=0;glass=0;sketch=1;" vertex="1" parent="WIyWlLk6GJQsqaUBKTNV-1">
          <mxGeometry x="580" y="136" width="160" height="86" as="geometry" />
        </mxCell>
        <mxCell id="FqfvfAQ5nrjEmceLnOEr-21" value="+ " style="text;strokeColor=none;fillColor=none;align=left;verticalAlign=top;spacingLeft=4;spacingRight=4;overflow=hidden;rotatable=0;points=[[0,0.5],[1,0.5]];portConstraint=eastwest;sketch=1;" vertex="1" parent="FqfvfAQ5nrjEmceLnOEr-20">
          <mxGeometry y="26" width="160" height="26" as="geometry" />
        </mxCell>
        <mxCell id="FqfvfAQ5nrjEmceLnOEr-22" value="" style="line;strokeWidth=1;fillColor=none;align=left;verticalAlign=middle;spacingTop=-1;spacingLeft=3;spacingRight=3;rotatable=0;labelPosition=right;points=[];portConstraint=eastwest;sketch=1;" vertex="1" parent="FqfvfAQ5nrjEmceLnOEr-20">
          <mxGeometry y="52" width="160" height="8" as="geometry" />
        </mxCell>
        <mxCell id="FqfvfAQ5nrjEmceLnOEr-23" value="+ invokeStrategy()" style="text;strokeColor=none;fillColor=none;align=left;verticalAlign=top;spacingLeft=4;spacingRight=4;overflow=hidden;rotatable=0;points=[[0,0.5],[1,0.5]];portConstraint=eastwest;sketch=1;" vertex="1" parent="FqfvfAQ5nrjEmceLnOEr-20">
          <mxGeometry y="60" width="160" height="26" as="geometry" />
        </mxCell>
      </root>
    </mxGraphModel>
  </diagram>
</mxfile>
